<svg xmlns="http://www.w3.org/2000/svg" version="1.1" xmlns:xlink="http://www.w3.org/1999/xlink" width="512" height="512" x="0" y="0" viewBox="0 0 682.667 682.667" style="enable-background:new 0 0 512 512" xml:space="preserve" class=""><g><defs><clipPath id="a" clipPathUnits="userSpaceOnUse"><path d="M0 512h512V0H0Z" fill="#000000" opacity="1" data-original="#000000"></path></clipPath></defs><g clip-path="url(#a)" transform="matrix(1.33333 0 0 -1.33333 0 682.667)"><path d="M0 0h-454.754c-11.666 0-21.123 9.457-21.123 21.123v397.828c0 11.666 9.457 21.123 21.123 21.123H0c11.666 0 21.123-9.457 21.123-21.123V21.123C21.123 9.457 11.666 0 0 0" style="fill-opacity:1;fill-rule:nonzero;stroke:none" transform="translate(483.377 35.963)" fill="#e8f3ff" data-original="#e8f3ff" class=""></path><path d="M0 0h-38.5c11.666 0 21.123-9.457 21.123-21.123v-397.828c0-11.666-9.457-21.123-21.123-21.123H0c11.666 0 21.123 9.457 21.123 21.123v397.828C21.123-9.457 11.666 0 0 0" style="fill-opacity:1;fill-rule:nonzero;stroke:none" transform="translate(483.377 476.037)" fill="#c1e2ff" data-original="#c1e2ff" class=""></path><path d="M0 0h-454.754c-11.666 0-21.123-9.457-21.123-21.123v-68.581h497v68.581C21.123-9.457 11.666 0 0 0" style="fill-opacity:1;fill-rule:nonzero;stroke:none" transform="translate(483.377 476.037)" fill="#c1e2ff" data-original="#c1e2ff" class=""></path><path d="M0 0v-68.581h38.5V0c0 11.666-9.457 21.123-21.123 21.123h-38.5C-9.457 21.123 0 11.666 0 0" style="fill-opacity:1;fill-rule:nonzero;stroke:none" transform="translate(466 454.914)" fill="#b3d8fb" data-original="#b3d8fb"></path><path d="M0 0c0-10.059-8.154-18.213-18.213-18.213-10.058 0-18.213 8.154-18.213 18.213 0 10.059 8.155 18.213 18.213 18.213C-8.154 18.213 0 10.059 0 0" style="fill-opacity:1;fill-rule:nonzero;stroke:none" transform="translate(456.122 431.153)" fill="#02c6db" data-original="#02c6db"></path><path d="M0 0c0-10.059-8.154-18.213-18.213-18.213-10.058 0-18.213 8.154-18.213 18.213 0 10.059 8.155 18.213 18.213 18.213C-8.154 18.213 0 10.059 0 0" style="fill-opacity:1;fill-rule:nonzero;stroke:none" transform="translate(383.089 431.153)" fill="#02c6db" data-original="#02c6db"></path><path d="M0 0h-250.501" style="fill-opacity:1;fill-rule:nonzero;stroke:#000000;stroke-width:15;stroke-linecap:round;stroke-linejoin:round;stroke-miterlimit:10;stroke-dasharray:none;stroke-opacity:1" transform="translate(304.834 431.185)" data-original="#000000"></path><path d="M0 0v-98.846c0-11.666-9.457-21.123-21.123-21.123h-454.754c-11.666 0-21.123 9.457-21.123 21.123v397.828c0 11.666 9.457 21.123 21.123 21.123h454.754C-9.457 320.105 0 310.648 0 298.982V35.063" style="stroke-width:15;stroke-linecap:round;stroke-linejoin:round;stroke-miterlimit:10;stroke-dasharray:none;stroke-opacity:1" transform="translate(504.5 155.932)" fill="none" stroke="#000000" stroke-width="15" stroke-linecap="round" stroke-linejoin="round" stroke-miterlimit="10" stroke-dasharray="none" stroke-opacity="" data-original="#000000"></path><path d="M0 0h434.728" style="stroke-width:15;stroke-linecap:round;stroke-linejoin:round;stroke-miterlimit:10;stroke-dasharray:none;stroke-opacity:1" transform="translate(69.772 386.334)" fill="none" stroke="#000000" stroke-width="15" stroke-linecap="round" stroke-linejoin="round" stroke-miterlimit="10" stroke-dasharray="none" stroke-opacity="" data-original="#000000"></path><path d="M0 0h27.21" style="stroke-width:15;stroke-linecap:round;stroke-linejoin:round;stroke-miterlimit:10;stroke-dasharray:none;stroke-opacity:1" transform="translate(7.5 386.334)" fill="none" stroke="#000000" stroke-width="15" stroke-linecap="round" stroke-linejoin="round" stroke-miterlimit="10" stroke-dasharray="none" stroke-opacity="" data-original="#000000"></path><path d="M0 0c0-10.059-8.154-18.213-18.213-18.213-10.058 0-18.213 8.154-18.213 18.213 0 10.059 8.155 18.213 18.213 18.213C-8.154 18.213 0 10.059 0 0Z" style="stroke-width:15;stroke-linecap:round;stroke-linejoin:round;stroke-miterlimit:10;stroke-dasharray:none;stroke-opacity:1" transform="translate(456.122 431.153)" fill="none" stroke="#000000" stroke-width="15" stroke-linecap="round" stroke-linejoin="round" stroke-miterlimit="10" stroke-dasharray="none" stroke-opacity="" data-original="#000000"></path><path d="M0 0c0-10.059-8.154-18.213-18.213-18.213-10.058 0-18.213 8.154-18.213 18.213 0 10.059 8.155 18.213 18.213 18.213C-8.154 18.213 0 10.059 0 0Z" style="stroke-width:15;stroke-linecap:round;stroke-linejoin:round;stroke-miterlimit:10;stroke-dasharray:none;stroke-opacity:1" transform="translate(383.089 431.153)" fill="none" stroke="#000000" stroke-width="15" stroke-linecap="round" stroke-linejoin="round" stroke-miterlimit="10" stroke-dasharray="none" stroke-opacity="" data-original="#000000"></path><path d="M0 0c-26.155 0-47.358 21.203-47.358 47.358 0 26.155 21.203 47.357 47.358 47.357 26.154 0 47.357-21.202 47.357-47.357C47.357 21.203 26.154 0 0 0m92.538 62.717h-5.479c-2.868 0-5.343 1.968-6.032 4.751a82.975 82.975 0 0 1-9.511 22.951c-1.484 2.459-1.13 5.604.9 7.635l3.879 3.879a6.208 6.208 0 0 1 0 8.78l-12.941 12.94a6.208 6.208 0 0 1-8.78 0l-3.879-3.879c-2.03-2.03-5.175-2.384-7.633-.9a83.033 83.033 0 0 1-22.953 9.512c-2.783.688-4.751 3.164-4.751 6.031v5.479c0 3.43-2.78 6.209-6.209 6.209H-9.15a6.209 6.209 0 0 1-6.209-6.209v-5.479c0-2.867-1.968-5.343-4.751-6.031a83.014 83.014 0 0 1-22.952-9.512c-2.459-1.484-5.604-1.13-7.634.9l-3.879 3.879a6.208 6.208 0 0 1-8.78 0l-12.941-12.94a6.21 6.21 0 0 1 0-8.78l3.879-3.879c2.03-2.031 2.385-5.176.901-7.635a82.947 82.947 0 0 1-9.512-22.951c-.689-2.783-3.164-4.751-6.032-4.751h-5.479a6.209 6.209 0 0 1-6.209-6.209v-18.3a6.209 6.209 0 0 1 6.209-6.209h5.479c2.868 0 5.343-1.968 6.032-4.751a82.966 82.966 0 0 1 9.512-22.952c1.484-2.458 1.129-5.604-.901-7.634l-3.879-3.879a6.21 6.21 0 0 1 0-8.78l12.941-12.94a6.208 6.208 0 0 1 8.78 0l3.879 3.878c2.03 2.031 5.175 2.385 7.634.901A82.953 82.953 0 0 1-20.11-33.67c2.783-.688 4.751-3.164 4.751-6.032v-5.479A6.21 6.21 0 0 1-9.15-51.39H9.149a6.21 6.21 0 0 1 6.209 6.209v5.479c0 2.868 1.968 5.344 4.751 6.032a82.972 82.972 0 0 1 22.953 9.512c2.458 1.484 5.603 1.13 7.633-.901l3.879-3.878a6.208 6.208 0 0 1 8.78 0l12.941 12.94a6.208 6.208 0 0 1 0 8.78l-3.879 3.879c-2.03 2.03-2.384 5.176-.9 7.634a82.994 82.994 0 0 1 9.511 22.952c.689 2.783 3.164 4.751 6.032 4.751h5.479c3.43 0 6.209 2.78 6.209 6.209v18.3a6.209 6.209 0 0 1-6.209 6.209" style="fill-opacity:1;fill-rule:nonzero;stroke:none" transform="translate(150.99 165.645)" fill="#0e80ac" data-original="#0e80ac"></path><path d="M0 0h158.667" style="fill-opacity:1;fill-rule:nonzero;stroke:#000000;stroke-width:15;stroke-linecap:round;stroke-linejoin:round;stroke-miterlimit:10;stroke-dasharray:none;stroke-opacity:1" transform="translate(301.092 289.53)" data-original="#000000"></path><path d="M0 0h158.667" style="fill-opacity:1;fill-rule:nonzero;stroke:#000000;stroke-width:15;stroke-linecap:round;stroke-linejoin:round;stroke-miterlimit:10;stroke-dasharray:none;stroke-opacity:1" transform="translate(301.092 212.79)" data-original="#000000"></path><path d="M0 0h158.667" style="fill-opacity:1;fill-rule:nonzero;stroke:#000000;stroke-width:15;stroke-linecap:round;stroke-linejoin:round;stroke-miterlimit:10;stroke-dasharray:none;stroke-opacity:1" transform="translate(301.092 136.051)" data-original="#000000"></path><path d="M0 0c-8.097 0-14.66 6.563-14.66 14.66v14.272c0 8.096 6.563 14.66 14.66 14.66 8.096 0 14.659-6.564 14.659-14.66V14.66C14.659 6.563 8.096 0 0 0" style="fill-opacity:1;fill-rule:nonzero;stroke:none" transform="translate(336.786 268.16)" fill="#fa6931" data-original="#fa6931"></path><path d="M0 0c-8.096 0-14.659 6.563-14.659 14.66v14.272c0 8.096 6.563 14.66 14.659 14.66 8.097 0 14.66-6.564 14.66-14.66V14.66C14.66 6.563 8.097 0 0 0" style="fill-opacity:1;fill-rule:nonzero;stroke:none" transform="translate(424.065 190.995)" fill="#fa6931" data-original="#fa6931"></path><path d="M0 0c-8.097 0-14.66 6.563-14.66 14.659v14.273c0 8.096 6.563 14.659 14.66 14.659 8.096 0 14.659-6.563 14.659-14.659V14.659C14.659 6.563 8.096 0 0 0" style="fill-opacity:1;fill-rule:nonzero;stroke:none" transform="translate(336.786 114.256)" fill="#fa6931" data-original="#fa6931"></path><path d="M0 0v0c-8.097 0-14.66 6.563-14.66 14.66v14.272c0 8.096 6.563 14.66 14.66 14.66 8.096 0 14.659-6.564 14.659-14.66V14.66C14.659 6.563 8.096 0 0 0Z" style="stroke-width:15;stroke-linecap:round;stroke-linejoin:round;stroke-miterlimit:10;stroke-dasharray:none;stroke-opacity:1" transform="translate(336.786 268.16)" fill="none" stroke="#000000" stroke-width="15" stroke-linecap="round" stroke-linejoin="round" stroke-miterlimit="10" stroke-dasharray="none" stroke-opacity="" data-original="#000000"></path><path d="M0 0v0c-8.096 0-14.659 6.563-14.659 14.66v14.272c0 8.096 6.563 14.66 14.659 14.66 8.097 0 14.66-6.564 14.66-14.66V14.66C14.66 6.563 8.097 0 0 0Z" style="stroke-width:15;stroke-linecap:round;stroke-linejoin:round;stroke-miterlimit:10;stroke-dasharray:none;stroke-opacity:1" transform="translate(424.065 190.995)" fill="none" stroke="#000000" stroke-width="15" stroke-linecap="round" stroke-linejoin="round" stroke-miterlimit="10" stroke-dasharray="none" stroke-opacity="" data-original="#000000"></path><path d="M0 0v0c-8.097 0-14.66 6.563-14.66 14.659v14.273c0 8.096 6.563 14.659 14.66 14.659 8.096 0 14.659-6.563 14.659-14.659V14.659C14.659 6.563 8.096 0 0 0Z" style="stroke-width:15;stroke-linecap:round;stroke-linejoin:round;stroke-miterlimit:10;stroke-dasharray:none;stroke-opacity:1" transform="translate(336.786 114.256)" fill="none" stroke="#000000" stroke-width="15" stroke-linecap="round" stroke-linejoin="round" stroke-miterlimit="10" stroke-dasharray="none" stroke-opacity="" data-original="#000000"></path><path d="M0 0c-26.155 0-47.358 21.203-47.358 47.358 0 26.155 21.203 47.357 47.358 47.357 26.154 0 47.357-21.202 47.357-47.357C47.357 21.203 26.154 0 0 0Zm92.538 62.717h-5.479c-2.868 0-5.343 1.968-6.032 4.751a82.975 82.975 0 0 1-9.511 22.951c-1.484 2.459-1.13 5.604.9 7.635l3.879 3.879a6.208 6.208 0 0 1 0 8.78l-12.941 12.94a6.208 6.208 0 0 1-8.78 0l-3.879-3.879c-2.03-2.03-5.175-2.384-7.633-.9a83.033 83.033 0 0 1-22.953 9.512c-2.783.688-4.751 3.164-4.751 6.031v5.479c0 3.43-2.78 6.209-6.209 6.209H-9.15a6.209 6.209 0 0 1-6.209-6.209v-5.479c0-2.867-1.968-5.343-4.751-6.031a83.014 83.014 0 0 1-22.952-9.512c-2.459-1.484-5.604-1.13-7.634.9l-3.879 3.879a6.208 6.208 0 0 1-8.78 0l-12.941-12.94a6.21 6.21 0 0 1 0-8.78l3.879-3.879c2.03-2.031 2.385-5.176.901-7.635a82.947 82.947 0 0 1-9.512-22.951c-.689-2.783-3.164-4.751-6.032-4.751h-5.479a6.209 6.209 0 0 1-6.209-6.209v-18.3a6.209 6.209 0 0 1 6.209-6.209h5.479c2.868 0 5.343-1.968 6.032-4.751a82.966 82.966 0 0 1 9.512-22.952c1.484-2.458 1.129-5.604-.901-7.634l-3.879-3.879a6.21 6.21 0 0 1 0-8.78l12.941-12.94a6.208 6.208 0 0 1 8.78 0l3.879 3.878c2.03 2.031 5.175 2.385 7.634.901A82.953 82.953 0 0 1-20.11-33.67c2.783-.688 4.751-3.164 4.751-6.032v-5.479A6.21 6.21 0 0 1-9.15-51.39H9.149a6.21 6.21 0 0 1 6.209 6.209v5.479c0 2.868 1.968 5.344 4.751 6.032a82.972 82.972 0 0 1 22.953 9.512c2.458 1.484 5.603 1.13 7.633-.901l3.879-3.878a6.208 6.208 0 0 1 8.78 0l12.941 12.94a6.208 6.208 0 0 1 0 8.78l-3.879 3.879c-2.03 2.03-2.384 5.176-.9 7.634a82.994 82.994 0 0 1 9.511 22.952c.689 2.783 3.164 4.751 6.032 4.751h5.479c3.43 0 6.209 2.78 6.209 6.209v18.3a6.209 6.209 0 0 1-6.209 6.209z" style="stroke-width:15;stroke-linecap:round;stroke-linejoin:round;stroke-miterlimit:10;stroke-dasharray:none;stroke-opacity:1" transform="translate(150.99 165.645)" fill="none" stroke="#000000" stroke-width="15" stroke-linecap="round" stroke-linejoin="round" stroke-miterlimit="10" stroke-dasharray="none" stroke-opacity="" data-original="#000000"></path></g></g></svg>